<?xml version="1.0" standalone="no"?><!DOCTYPE svg PUBLIC "-//W3C//DTD SVG 1.1//EN" "http://www.w3.org/Graphics/SVG/1.1/DTD/svg11.dtd"><svg t="1527664708827" class="icon" style="" viewBox="0 0 1536 1024" version="1.1" xmlns="http://www.w3.org/2000/svg" p-id="46947" data-spm-anchor-id="a313x.7781069.0.i2" xmlns:xlink="http://www.w3.org/1999/xlink" width="96" height="64"><defs><style type="text/css"></style></defs><path d="M215.04 337.92c-71.68 0-133.12-61.44-133.12-133.12 0-71.68 61.44-133.12 133.12-133.12s133.12 61.44 133.12 133.12c0 71.68-61.44 133.12-133.12 133.12z m1105.92 0c-71.68 0-133.12-61.44-133.12-133.12 0-71.68 61.44-133.12 133.12-133.12s133.12 61.44 133.12 133.12c10.24 71.68-51.2 133.12-133.12 133.12z m-1013.76 184.32c30.72 204.8 225.28 368.64 460.8 368.64s430.08-153.6 460.8-368.64h-921.6z" fill="#2c2c2c" p-id="46948" data-spm-anchor-id="a313x.7781069.0.i0" class=""></path><path d="M512 563.2h512v102.4h-512z" fill="#FFFFFF" p-id="46949" data-spm-anchor-id="a313x.7781069.0.i4" class=""></path></svg>